<?xml version="1.0" encoding="utf-8"?>
<!-- Generator: Adobe Illustrator 19.1.0, SVG Export Plug-In . SVG Version: 6.00 Build 0)  -->
<svg version="1.1" id="Layer_1" xmlns="http://www.w3.org/2000/svg" xmlns:xlink="http://www.w3.org/1999/xlink" x="0px" y="0px"
	 viewBox="333.186 246.973 293.516 67.792" enable-background="new 333.186 246.973 293.516 67.792" xml:space="preserve">
<g>
	<path fill="#404041" d="M575.52,293.869c-0.478-6.72-4.324-10.141-11.042-10.142c-7.18-0.001-14.36,0.004-21.541-0.007
		c-0.723-0.001-1.453-0.047-2.166-0.161c-1.715-0.274-2.632-1.307-2.693-3.033c-0.043-1.209-0.029-2.42-0.012-3.63
		c0.031-2.183,1.141-3.4,3.351-3.413c7.261-0.044,14.522-0.02,21.782-0.012c1.561,0.002,2.753,0.616,3.61,2.004
		c0.373,0.603,1.042,1.16,1.702,1.421c1.369,0.543,3.249-0.167,4.228-1.369c1.069-1.312,1.111-2.685,0.335-4.149
		c-1.762-3.327-4.641-5.15-8.274-5.229c-8.104-0.176-16.215-0.157-24.32-0.019c-4.627,0.079-8.318,3.187-9.1,7.561
		c-0.414,2.315-0.504,4.742-0.356,7.094c0.43,6.862,4.214,10.259,11.14,10.259c7.14,0,14.28-0.003,21.42,0.005
		c0.643,0.001,1.292,0.027,1.929,0.11c2.008,0.261,2.996,1.318,3.062,3.364c0.057,1.733,0.057,3.47,0.005,5.203
		c-0.067,2.244-1.258,3.411-3.51,3.416c-7.705,0.019-15.409,0.002-23.114,0.01c-1.54,0.002-2.672-0.602-3.496-1.943
		c-1.082-1.761-2.789-2.135-4.714-1.156c-1.741,0.885-2.645,2.865-1.854,4.555c0.552,1.179,1.302,2.343,2.216,3.261
		c2.113,2.12,4.87,2.715,7.76,2.74c3.751,0.033,7.503,0.008,11.254,0.008c3.913,0,7.826,0,11.738,0c0.081,0,0.161-0.002,0.242-0.004
		c5.501-0.148,9.414-3.189,10.158-8.303C575.665,299.539,575.719,296.666,575.52,293.869z"/>
	<path fill="#404041" d="M626.59,293.908c-0.478-6.72-4.324-10.141-11.042-10.142c-7.18-0.001-14.36,0.004-21.541-0.007
		c-0.723-0.001-1.453-0.047-2.166-0.161c-1.715-0.274-2.632-1.307-2.693-3.033c-0.043-1.209-0.029-2.42-0.012-3.63
		c0.031-2.183,1.141-3.4,3.351-3.413c7.261-0.044,14.522-0.02,21.782-0.012c1.561,0.002,2.753,0.616,3.61,2.004
		c0.373,0.603,1.042,1.16,1.702,1.421c1.369,0.543,3.249-0.167,4.228-1.369c1.069-1.312,1.111-2.685,0.335-4.149
		c-1.762-3.327-4.641-5.15-8.274-5.229c-8.104-0.176-16.215-0.157-24.32-0.019c-4.627,0.079-8.318,3.187-9.1,7.561
		c-0.414,2.315-0.504,4.742-0.356,7.094c0.43,6.862,4.214,10.259,11.14,10.259c7.14,0,14.28-0.003,21.42,0.005
		c0.643,0.001,1.292,0.027,1.929,0.11c2.007,0.261,2.996,1.318,3.062,3.364c0.057,1.733,0.057,3.47,0.005,5.203
		c-0.067,2.244-1.258,3.411-3.51,3.416c-7.705,0.019-15.409,0.002-23.114,0.01c-1.54,0.002-2.672-0.602-3.496-1.943
		c-1.082-1.761-2.789-2.135-4.714-1.156c-1.741,0.885-2.645,2.865-1.854,4.555c0.552,1.179,1.302,2.343,2.216,3.261
		c2.113,2.12,4.87,2.715,7.76,2.74c3.751,0.033,7.503,0.008,11.254,0.008c3.913,0,7.826,0,11.738,0c0.081,0,0.161-0.002,0.242-0.004
		c5.501-0.148,9.414-3.189,10.158-8.303C626.736,299.578,626.789,296.706,626.59,293.908z"/>
	<path fill="#404041" d="M458.778,266.073c-6.695-0.005-13.389-0.001-20.084-0.001c-2.012,0-4.025,0-6.17,0
		c-0.025-0.463-0.057-0.779-0.057-1.094c-0.003-4.759,0.013-9.518-0.009-14.276c-0.012-2.715-2.445-4.384-5.014-3.484
		c-1.776,0.623-2.446,1.807-2.446,4.363c-0.002,18.148-0.001,36.296,0.002,54.444c0,0.442,0.02,0.888,0.077,1.325
		c0.301,2.298,1.358,3.254,3.666,3.277c2.218,0.022,4.436,0.005,6.654,0.005c7.824,0,15.648,0.033,23.471-0.011
		c6.312-0.035,10.395-3.533,10.632-9.764c0.395-10.377,0.449-19.658,0.009-25.025C468.995,269.546,465.147,266.078,458.778,266.073z
		 M462.239,299.118c-0.007,2.974-1.119,4.044-4.121,4.045c-8.144,0.004-16.289,0.001-24.433,0.001c-0.356,0-0.712,0-1.143,0
		c0-9.907,0-19.724,0-29.688c0.486,0,0.959,0,1.433,0c8.023,0,16.047-0.001,24.07,0.001c3.064,0.001,4.188,1.078,4.195,4.11
		C462.256,284.764,462.257,291.941,462.239,299.118z"/>
	<path fill="#404041" d="M512.798,266.075c-7.704-0.011-15.408-0.013-23.112,0.001c-6.496,0.012-10.626,3.978-10.707,10.493
		c-0.097,7.824-0.096,15.65-0.004,23.474c0.076,6.507,4.175,10.529,10.677,10.575c7.744,0.055,15.488,0.054,23.232,0.001
		c6.553-0.045,10.603-4.178,10.62-10.716c0.01-3.832,0.002-7.664,0.002-11.495c0-3.872,0.004-7.744-0.001-11.616
		C523.497,270.168,519.425,266.084,512.798,266.075z M516.185,298.402c-0.001,0.562-0.036,1.128-0.107,1.686
		c-0.268,2.098-1.31,3.05-3.456,3.067c-3.789,0.028-7.579,0.008-11.368,0.008c-3.668,0.002-7.337,0.011-11.005,0
		c-2.73-0.008-3.824-1.083-3.829-3.807c-0.014-7.377-0.015-14.754,0.001-22.131c0.006-2.614,1.143-3.737,3.782-3.742
		c7.377-0.014,14.754-0.013,22.131,0c2.51,0.004,3.52,0.934,3.778,3.399c0.05,0.48,0.074,0.964,0.075,1.446
		C516.191,285.019,516.192,291.71,516.185,298.402z"/>
	<path fill="#404041" d="M413.039,284.627c-8.906-0.006-1.637-0.004-10.542,0.001c-0.401,0-0.803,0.05-1.204,0.073
		c-1.297,0.074-2.164,0.79-2.747,1.888c-1.292,2.436,0.327,5.359,3.081,5.399c4.714,0.068,4.808,0.019,9.522,0.019
		c0,0.002,0,0.004,0,0.006c4.715,0-2.124,0.035,2.59-0.014c2.566-0.027,4.14-2.317,3.391-4.777
		C416.561,285.353,415.442,284.628,413.039,284.627z"/>
	<g>
		<path fill="#00ADEE" d="M390.234,269.681c-0.038-2.691-1.278-3.648-4.04-3.648c-10.479-0.002-20.958-0.001-31.437-0.001l0,0
			c-0.204,0-1.017,0-1.939,0c-0.269-4.589-3.203-7.805-7.699-8.79c-1.092-0.239-2.237-0.322-3.359-0.327
			c-1.139-0.004-1.845-0.008-2.258-0.011c-0.428,0.002-1.084,0.005-2.076,0.008l-0.002,0.027c-0.165-0.022-0.328-0.05-0.499-0.05
			c-2.065,0-3.739,1.674-3.739,3.739c0,2.03,1.62,3.673,3.637,3.729l-0.001,0.008c0.025,0,0.05,0,0.076,0
			c0.009,0,0.018,0.003,0.028,0.003c0.009,0,0.018-0.003,0.027-0.003c0.956,0.001,1.624,0.002,2.084,0.003
			c0.051,0.001,0.723,0.003,2.966,0.009c2.29,0.006,3.473,1.104,3.554,3.363c0.022,0.62,0.034,1.792,0.041,3.196
			c-0.002,0.212-0.004,0.425-0.006,0.647l-0.006,0.005c-0.001,0.682-0.005,1.364-0.007,2.046c-0.005,1.134-0.007,2.245-0.003,3.125
			l0.003-0.004c0.002,0.579,0.011,1.158,0.02,1.737c-0.001,0.394-0.002,0.766-0.003,1.112l-0.023-0.021
			c0.009,4.676-0.022,17.445,0.223,22.111c0.243,4.627,3.188,7.869,7.708,8.86c0.42,0.092,0.853,0.143,1.285,0.194
			c-0.009,0.108-0.032,0.211-0.032,0.322c0,2.04,1.654,3.695,3.695,3.695c2.04,0,3.695-1.654,3.695-3.695
			c0-0.064-0.016-0.124-0.019-0.188c3.085,0.006,6.171,0.005,9.256,0.001c-0.003,0.063-0.019,0.123-0.019,0.187
			c0,2.04,1.654,3.695,3.695,3.695c2.04,0,3.695-1.654,3.695-3.695c0-0.066-0.016-0.127-0.019-0.192
			c0.097,0.012,0.192,0.029,0.293,0.029c2.065,0,3.739-1.674,3.739-3.739c0-2.03-1.62-3.673-3.637-3.729l0.001-0.008
			c-0.025,0-0.05,0-0.076,0c-0.009,0-0.018-0.003-0.028-0.003c-0.009,0-0.018,0.003-0.027,0.003
			c-7.46-0.011-14.92,0.007-22.38-0.012c-2.29-0.006-3.473-1.104-3.554-3.363c-0.043-1.2-0.05-4.426-0.047-7.511
			c0.942,0.236,1.958,0.363,3.041,0.369c6.898,0.036,13.797,0.028,20.695-0.004c1.848-0.009,3.726,0.01,5.535-0.303
			c4.28-0.74,7.472-4.083,7.731-8.419C390.31,279.364,390.301,274.516,390.234,269.681z M382.812,281.823
			c-0.034,2.506-1.233,3.683-3.752,3.689c-7.418,0.015-14.836,0.015-22.253,0c-2.514-0.005-3.706-1.168-3.752-3.691
			c-0.047-2.579-0.013-5.16-0.005-7.74c0.001-0.183,0.085-0.366,0.133-0.558c9.852,0,19.646,0,29.636,0
			C382.82,276.361,382.849,279.093,382.812,281.823z"/>
		<path fill="#FFFFFF" d="M339.504,256.904C341.699,256.892,337.658,256.891,339.504,256.904L339.504,256.904z"/>
	</g>
</g>
</svg>
