<?xml version="1.0" encoding="utf-8"?>
<!-- Generator: Adobe Illustrator 19.1.0, SVG Export Plug-In . SVG Version: 6.00 Build 0)  -->
<svg version="1.1" id="Capa_1" xmlns="http://www.w3.org/2000/svg" xmlns:xlink="http://www.w3.org/1999/xlink" x="0px" y="0px"
	 viewBox="-223 25 512 512" enable-background="new -223 25 512 512" xml:space="preserve">
<g>
	<g>
		<path fill="#33BEF2" d="M33,25c-141.391,0-256,114.609-256,256s114.609,256,256,256s256-114.609,256-256S174.391,25,33,25z
			 M33,497c-119.297,0-216-96.703-216-216S-86.297,65,33,65s216,96.703,216,216S152.297,497,33,497z"/>
		<path fill="#33BEF2" d="M24.5,185v16l48-24l-48-24v16c-32,0-70.039,20.594-89.961,51.578L-59,237.75
			C-43.172,206.484-7.5,185,24.5,185z"/>
		<path fill="#33BEF2" d="M-63,289.5h16l-24-48l-24,48h16c0,32,20.586,70.031,51.578,89.969L-10.25,373
			C-41.516,357.172-63,321.5-63,289.5z"/>
		<path fill="#33BEF2" d="M24.5,377v-16l-48,24l48,24v-16c48,0,78.531-20.594,98.469-51.578L112.25,324.25
			C96.422,355.516,72.5,377,24.5,377z"/>
		<path fill="#33BEF2" d="M93.422,191.031L76.25,201.75C107.516,217.578,129,241.5,129,289.5h-16l24,48l24-48h-16
			C145,241.5,124.406,210.969,93.422,191.031z"/>
	</g>
</g>
</svg>
