<?xml version="1.0" encoding="utf-8"?>
<!-- Generator: Adobe Illustrator 19.1.0, SVG Export Plug-In . SVG Version: 6.00 Build 0)  -->
<svg version="1.1" id="Capa_1" xmlns="http://www.w3.org/2000/svg" xmlns:xlink="http://www.w3.org/1999/xlink" x="0px" y="0px"
	 viewBox="-254 56 450 450" enable-background="new -254 56 450 450" xml:space="preserve">
<g>
	<g>
		<g>
			<path fill="#33BEF2" d="M-23.762,366.184c-17.647,8.016-37.233,12.48-57.843,12.48c-77.39,0-140.353-62.961-140.353-140.352
				S-158.995,97.959-81.605,97.959c77.391,0,140.353,62.962,140.353,140.353c0,33.969-12.133,65.156-32.29,89.461
				c6.941,7.625,15.153,16.225,22.209,23.332C74.898,320.85,90.79,281.401,90.79,238.312c0-95.06-77.335-172.396-172.395-172.396
				C-176.664,65.917-254,143.253-254,238.313s77.336,172.395,172.395,172.395c28.525,0,55.451-6.97,79.171-19.286
				C-9.816,382.727-17.436,373.727-23.762,366.184z"/>
			<path fill="#33BEF2" d="M-80.262,349.332h1.516c6.542,0,11.847-5.304,11.847-11.847v-15.062
				C-37.844,318.042-19.6,300.491-19.6,276c0.248-33.294-25.275-44.322-47.299-51.208v-48.635
				c8.123,1.216,16.069,3.803,21.829,7.255c5.538,3.32,12.715,1.593,16.137-3.882l0.675-1.08c1.681-2.69,2.213-5.941,1.477-9.026
				c-0.735-3.086-2.678-5.747-5.392-7.388c-9.534-5.766-22.202-9.811-34.726-11.264V139.14c0-6.542-5.305-11.847-11.847-11.847
				h-1.516c-6.542,0-11.847,5.305-11.847,11.847v12.29c-26.93,4.309-43.813,20.494-43.813,42.961
				c0,31.516,24.806,42.847,43.813,49.08v53.748c-11.588-2.108-22.773-7.549-30.264-15.024c-4.628-4.619-12.125-4.615-16.746,0.011
				l-1.024,1.023c-2.245,2.246-3.494,5.3-3.468,8.474c0.026,3.175,1.326,6.207,3.607,8.414
				c12.409,12.012,30.076,20.217,47.896,22.578v14.791C-92.109,344.028-86.804,349.332-80.262,349.332z M-66.899,251.429
				c15.055,5.494,22.203,11.432,22.09,24.396c0,0.034,0,0.068,0,0.102c0,13.23-12.073,18.627-22.09,20.825V251.429z
				 M-110.712,194.392c0-10.536,9.89-15.19,18.603-17.246v39.367C-106.069,210.693-110.712,204.625-110.712,194.392z"/>
			<path fill="#33BEF2" d="M194.662,410.766c-4.595-24.766-20.357-47.664-29.344-59.11c-12.191-15.531-27.666-21.769-45.99-18.539
				c-13.086,2.305-27.307,9.429-42.271,21.177c-10.573,8.304-18.558,16.61-22.088,20.479c-8.875-7.645-33.652-33.177-45.818-47.573
				c-6.107-7.23-21.863-22.605-33.619-11.991c-12.655,12.3,5.881,32.396,6.362,32.979l74.363,91.023
				c-0.301,0.404-0.638,0.752-1.022,1.055c-7.131,5.601-27.942-4.689-36.343-10.246c-7.68-5.074-20.61-5.035-27.137,0.084
				c-2.613,2.055-4.059,4.845-4.076,7.854c-0.021,4.336,2.815,8.82,8.422,13.313c0.063,0.052,0.177,0.148,0.339,0.288
				c8.284,7.101,30.763,24.783,60.445,35.667c19.027,6.979,37.564,9.854,55.103,8.552c21.754-1.621,42.024-9.694,60.247-24
				C191.781,456.431,199.327,435.903,194.662,410.766z"/>
		</g>
	</g>
</g>
</svg>
