<?xml version="1.0" encoding="utf-8"?>
<!-- Generator: Adobe Illustrator 19.1.0, SVG Export Plug-In . SVG Version: 6.00 Build 0)  -->
<svg version="1.1" id="Capa_1" xmlns="http://www.w3.org/2000/svg" xmlns:xlink="http://www.w3.org/1999/xlink" x="0px" y="0px"
	 viewBox="-241 43.551 475.449 475.449" enable-background="new -241 43.551 475.449 475.449" xml:space="preserve">
<g>
	<path fill="#33BEF2" d="M201.402,44.537h-327.315c-18.226,0-33.048,14.822-33.048,33.048v35.83h16.221H-7.377h209.415V404.9
		c0,0.342-0.279,0.62-0.636,0.62h-55.533v32.428h55.533c18.209,0,33.047-14.822,33.047-33.048V77.585
		C234.449,59.359,219.611,44.537,201.402,44.537z M78.391,96.898c-9.99,0-18.102-8.079-18.102-18.085
		c0-4.351,1.74-8.205,4.319-11.313c3.31-4.04,8.142-6.759,13.782-6.759c5.609,0,10.441,2.719,13.767,6.759
		c2.564,3.108,4.304,6.961,4.304,11.313C96.461,88.819,88.366,96.898,78.391,96.898z M127.008,96.898
		c-9.99,0-18.102-8.079-18.102-18.085c0-4.351,1.757-8.205,4.336-11.313c3.31-4.04,8.125-6.759,13.766-6.759
		c5.624,0,10.426,2.719,13.766,6.759c2.564,3.108,4.304,6.961,4.304,11.313C145.077,88.819,136.968,96.898,127.008,96.898z
		 M175.609,96.898c-9.976,0-18.071-8.079-18.071-18.085c0-4.351,1.726-8.205,4.304-11.313c3.326-4.04,8.143-6.759,13.768-6.759
		s10.457,2.719,13.781,6.759c2.564,3.108,4.305,6.961,4.305,11.313C193.695,88.819,185.584,96.898,175.609,96.898z"/>
	<path fill="#33BEF2" d="M-47.215,494.879v-38.533h-161.374V190.993c0-7.022,5.734-12.755,12.757-12.755H-7.377
		c7.023,0,12.771,5.732,12.771,12.755v59.214H37.79v-59.214c0-24.922-20.262-45.167-45.168-45.167h-188.454
		c-24.922,0-45.168,20.245-45.168,45.167v281.635c0,24.923,20.246,45.169,45.168,45.169h155.313
		C-43.922,512.342-47.215,505.107-47.215,494.879z M-101.581,505.832c-5.531,0-10.286-2.625-13.612-6.525
		c-2.671-3.139-4.489-7.085-4.489-11.576c0-9.975,8.111-18.086,18.102-18.086c9.96,0,18.071,8.111,18.071,18.086
		c0,4.491-1.803,8.438-4.476,11.576C-91.326,503.207-96.081,505.832-101.581,505.832z"/>
	<path fill="#33BEF2" d="M102.458,270.453H-3.803c-12.756,0-23.152,10.379-23.152,23.151v201.274
		c0,12.756,10.396,23.136,23.152,23.136h106.261c12.757,0,23.151-10.38,23.151-23.136V293.604
		C125.609,280.832,115.215,270.453,102.458,270.453z M-2.637,294.769h103.93v178.246H-2.637V294.769z M37.744,494.272
		c0-6.386,5.174-11.561,11.56-11.561c6.417,0,11.607,5.175,11.607,11.561c0,6.401-5.19,11.591-11.607,11.591
		C42.918,505.863,37.744,500.674,37.744,494.272z"/>
</g>
</svg>
