<?xml version="1.0" encoding="utf-8"?>
<!-- Generator: Adobe Illustrator 19.1.0, SVG Export Plug-In . SVG Version: 6.00 Build 0)  -->
<svg version="1.1" id="Capa_1" xmlns="http://www.w3.org/2000/svg" xmlns:xlink="http://www.w3.org/1999/xlink" x="0px" y="0px"
	 viewBox="-456 258.374 45.626 45.626" enable-background="new -456 258.374 45.626 45.626" xml:space="preserve">
<g>
	<g>
		<path fill="#33BEF2" d="M-450.372,271.25h-2.69c-1.507,0-2.726,1.263-2.726,2.77v6.902c0,1.508,1.219,2.749,2.726,2.749h2.689
			c1.507,0,2.731-1.241,2.731-2.749v-6.902C-447.641,272.513-448.865,271.25-450.372,271.25z M-449.615,279.437
			c0,0.412-0.346,0.745-0.757,0.745h-2.69c-0.412,0-0.771-0.333-0.771-0.745v-5.417c0-0.41,0.358-0.7,0.771-0.7h2.689
			c0.411,0,0.757,0.29,0.757,0.7L-449.615,279.437L-449.615,279.437z"/>
		<path fill="#33BEF2" d="M-436.298,271.008h5.984c1.533,0,2.824-1.287,2.824-2.823v-7.029c0.001-1.535-1.29-2.782-2.823-2.782
			h-5.984c-1.534,0-2.734,1.247-2.734,2.782v7.028C-439.032,269.72-437.832,271.008-436.298,271.008z M-437.033,261.156
			c0-0.419,0.317-0.782,0.735-0.782h5.984c0.418,0,0.732,0.363,0.732,0.782v5.517c0,0.419-0.314,0.79-0.732,0.79h-5.984
			c-0.418,0-0.735-0.371-0.735-0.79V261.156z"/>
		<path fill="#33BEF2" d="M-412.864,272.28h-9.057c-1.236,0-2.206,0.967-2.206,2.206v5.669c0,1.238,0.97,2.213,2.206,2.213h0.884
			v0.135c0,0.841,0.66,1.501,1.501,1.501h4.285c0.842,0,1.485-0.66,1.485-1.501v-0.135h0.899c1.237,0,2.28-0.976,2.28-2.213v-5.669
			C-410.585,273.247-411.628,272.28-412.864,272.28z M-412.675,280.103c0,0.147-0.12,0.266-0.268,0.266h-9.01
			c-0.146,0-0.267-0.119-0.267-0.266v-5.647c0-0.147,0.118-0.267,0.267-0.267h9.01c0.146,0,0.268,0.119,0.268,0.267V280.103z"/>
		<path fill="#33BEF2" d="M-434.626,288.647c-5.478,0.729-9.324,5.762-8.594,11.237l0.046,0.329
			c0.289,2.171,2.142,3.786,4.333,3.786h11.072c2.191,0,4.045-1.615,4.334-3.786l0.045-0.333c0.107-0.842,0.115-1.757,0-2.642
			C-424.12,291.764-429.151,287.918-434.626,288.647z"/>
		<circle fill="#33BEF2" cx="-433.306" cy="280.072" r="7.071"/>
		<path fill="#33BEF2" d="M-442.132,265.922c-0.617-0.898-1.846-1.125-2.749-0.508l-2.511,1.728
			c-0.899,0.619-1.126,1.849-0.508,2.748c0.383,0.557,1.001,0.856,1.629,0.856c0.387,0,0.776-0.113,1.119-0.348l2.512-1.729
			C-441.741,268.051-441.514,266.821-442.132,265.922z"/>
		<path fill="#33BEF2" d="M-424.731,268.67l2.514,1.729c0.342,0.235,0.732,0.348,1.117,0.348c0.63,0,1.246-0.299,1.63-0.856
			c0.618-0.899,0.394-2.129-0.507-2.748l-2.514-1.728c-0.898-0.617-2.127-0.39-2.748,0.508
			C-425.856,266.821-425.629,268.051-424.731,268.67z"/>
	</g>
</g>
</svg>
